<?xml version="1.0" encoding="utf-8"?>
<!-- Generator: Adobe Illustrator 22.0.1, SVG Export Plug-In . SVG Version: 6.00 Build 0)  -->
<svg version="1.1" xmlns="http://www.w3.org/2000/svg" xmlns:xlink="http://www.w3.org/1999/xlink" x="0px" y="0px"
	 viewBox="0 0 36 36" style="enable-background:new 0 0 36 36;" xml:space="preserve">
<style type="text/css">
	.st0{display:none;}
	.st1{display:inline;stroke:#000000;stroke-miterlimit:10;}
	.st2{fill:#FFFFFF;}
</style>
<g id="Слой_1" class="st0">
	<rect class="st1" width="36" height="36"/>
</g>
<g id="Слой_2">
	<path class="st2" d="M12.2,36h-0.5C10.2,36,9,34.8,9,33.3V19.7c0-1.5,1.2-2.7,2.7-2.7h0.5c1.5,0,2.7,1.2,2.7,2.7v13.6
		C14.9,34.8,13.7,36,12.2,36z"/>
	<path class="st2" d="M21.2,36h-0.5c-1.5,0-2.7-1.2-2.7-2.7v-19c0-1.5,1.2-2.7,2.7-2.7h0.5c1.5,0,2.7,1.2,2.7,2.7v19
		C23.9,34.8,22.6,36,21.2,36z"/>
	<path class="st2" d="M3.2,36H2.7C1.2,36,0,34.8,0,33.3l0-8.4c0-1.5,1.2-2.7,2.7-2.7h0.5c1.5,0,2.7,1.2,2.7,2.7v8.4
		C5.9,34.8,4.7,36,3.2,36z"/>
	<path class="st2" d="M30.1,36h-0.5c-1.5,0-2.7-1.2-2.7-2.7V6.9c0-1.5,1.2-2.7,2.7-2.7h0.5c1.5,0,2.7,1.2,2.7,2.7v26.4
		C32.8,34.8,31.6,36,30.1,36z"/>
	<path class="st2" d="M29.6,0.4l-5.2,7.1c-0.2,0.2,0,0.5,0.3,0.5h10.4c0.3,0,0.4-0.3,0.3-0.5l-5.2-7.1C30,0.2,29.7,0.2,29.6,0.4z"/>
</g>
</svg>
