<?xml version="1.0" encoding="utf-8"?>
<!-- Generator: Adobe Illustrator 22.0.1, SVG Export Plug-In . SVG Version: 6.00 Build 0)  -->
<svg version="1.1" id="Слой_1" xmlns="http://www.w3.org/2000/svg" xmlns:xlink="http://www.w3.org/1999/xlink" x="0px" y="0px"
	 viewBox="0 0 512 512" style="enable-background:new 0 0 512 512;" xml:space="preserve">
<style type="text/css">
	.st0{fill:#FFFFFF;}
</style>
<path class="st0" d="M96,96c0,26.5-21.5,48-48,48S0,122.5,0,96s21.5-48,48-48S96,69.5,96,96z M48,208c-26.5,0-48,21.5-48,48
	s21.5,48,48,48s48-21.5,48-48S74.5,208,48,208z M48,368c-26.5,0-48,21.5-48,48s21.5,48,48,48s48-21.5,48-48S74.5,368,48,368z
	 M144,132h352c8.8,0,16-7.2,16-16V76c0-8.8-7.2-16-16-16H144c-8.8,0-16,7.2-16,16v40C128,124.8,135.2,132,144,132z M144,292h352
	c8.8,0,16-7.2,16-16v-40c0-8.8-7.2-16-16-16H144c-8.8,0-16,7.2-16,16v40C128,284.8,135.2,292,144,292z M144,452h352
	c8.8,0,16-7.2,16-16v-40c0-8.8-7.2-16-16-16H144c-8.8,0-16,7.2-16,16v40C128,444.8,135.2,452,144,452z"/>
</svg>
